<svg version="1.1" id="Layer_1" xmlns="http://www.w3.org/2000/svg" xmlns:xlink="http://www.w3.org/1999/xlink" x="0px" y="0px"
	height="30px" width="30px" viewBox="0 0 980 980" enable-background="new 0 0 980 980" xml:space="preserve">
<path fill="#000000" opacity="1.000000" stroke="none" 
	d="
M477.000000,0.999999 
	C485.354218,1.000000 493.708466,1.000000 502.706482,1.375498 
	C517.933350,2.988744 531.905212,6.712091 544.801941,13.538474 
	C589.907898,37.413605 613.168823,75.046005 613.404358,126.087692 
	C613.768005,204.904968 613.500610,283.725159 613.500977,362.544098 
	C613.501038,364.466705 613.501038,366.389313 613.501038,368.564148 
	C616.074219,368.564148 617.894531,368.564178 619.714844,368.564178 
	C698.867065,368.564178 778.019287,368.530731 857.171509,368.575439 
	C913.860352,368.607483 961.625488,404.711456 976.593811,458.869690 
	C978.421021,465.480713 979.548340,472.285187 981.000000,479.000000 
	C981.000000,487.020905 981.000000,495.041809 980.634399,503.698364 
	C972.591858,568.877563 918.359924,614.333740 857.338379,613.391235 
	C782.379395,612.233521 707.425537,610.744080 632.468994,609.425110 
	C626.213440,609.315002 619.954224,609.410461 613.332642,609.410461 
	C613.332642,611.658691 613.332642,613.632690 613.332581,615.606628 
	C613.332153,695.750427 613.399719,775.894287 613.309265,856.038025 
	C613.240417,917.036133 573.696716,966.131165 514.871033,978.527893 
	C510.596863,979.428650 506.291107,980.179504 502.000000,981.000000 
	C493.979095,981.000000 485.958191,981.000000 477.331787,980.620911 
	C476.240662,980.135376 475.759308,980.000488 475.268799,979.926575 
	C412.228088,970.423401 367.226379,918.421814 368.374207,856.475464 
	C369.868500,775.832031 371.318024,695.187805 372.781799,614.543823 
	C372.813660,612.788208 372.785767,611.031555 372.785767,609.110229 
	C370.991333,609.110229 369.835846,609.092407 368.681000,609.112732 
	C288.211273,610.531494 207.737732,611.767822 127.273163,613.436462 
	C67.779579,614.670166 16.526299,574.817017 3.812841,516.802124 
	C2.947264,512.852295 1.940895,508.933319 1.000002,505.000000 
	C1.000000,495.979095 1.000000,486.958221 1.367328,477.305176 
	C2.322267,473.234039 2.771024,469.764526 3.518162,466.360565 
	C16.335249,407.965576 65.201866,368.599609 124.976051,368.573242 
	C205.596252,368.537689 286.216492,368.564392 366.836731,368.564362 
	C368.785950,368.564362 370.735138,368.564392 372.886505,368.564392 
	C372.886505,366.630676 372.907288,365.310120 372.883545,363.990356 
	C371.462341,285.051331 370.221405,206.108475 368.552856,127.174667 
	C367.297058,67.769196 407.173584,16.542383 465.203125,3.807986 
	C469.150726,2.941704 473.068390,1.939168 477.000000,0.999999 
z"/>
<path fill="#FFFFFF" opacity="1.000000" stroke="none" 
	d="
M1.000002,505.468658 
	C1.940895,508.933319 2.947264,512.852295 3.812841,516.802124 
	C16.526299,574.817017 67.779579,614.670166 127.273163,613.436462 
	C207.737732,611.767822 288.211273,610.531494 368.681000,609.112732 
	C369.835846,609.092407 370.991333,609.110229 372.785767,609.110229 
	C372.785767,611.031555 372.813660,612.788208 372.781799,614.543823 
	C371.318024,695.187805 369.868500,775.832031 368.374207,856.475464 
	C367.226379,918.421814 412.228088,970.423401 475.268799,979.926575 
	C475.759308,980.000488 476.240662,980.135376 476.863159,980.620911 
	C318.406250,981.000000 159.812500,981.000000 1.000000,981.000000 
	C1.000000,822.645813 1.000000,664.291565 1.000002,505.468658 
z"/>
<path fill="#FFFFFF" opacity="1.000000" stroke="none" 
	d="
M502.468658,981.000000 
	C506.291107,980.179504 510.596863,979.428650 514.871033,978.527893 
	C573.696716,966.131165 613.240417,917.036133 613.309265,856.038025 
	C613.399719,775.894287 613.332153,695.750427 613.332581,615.606628 
	C613.332642,613.632690 613.332642,611.658691 613.332642,609.410461 
	C619.954224,609.410461 626.213440,609.315002 632.468994,609.425110 
	C707.425537,610.744080 782.379395,612.233521 857.338379,613.391235 
	C918.359924,614.333740 972.591858,568.877563 980.634399,504.166992 
	C981.000000,662.927246 981.000000,821.854431 981.000000,981.000000 
	C821.645813,981.000000 662.291565,981.000000 502.468658,981.000000 
z"/>
<path fill="#FFFFFF" opacity="1.000000" stroke="none" 
	d="
M476.531342,0.999999 
	C473.068390,1.939168 469.150726,2.941704 465.203125,3.807986 
	C407.173584,16.542383 367.297058,67.769196 368.552856,127.174667 
	C370.221405,206.108475 371.462341,285.051331 372.883545,363.990356 
	C372.907288,365.310120 372.886505,366.630676 372.886505,368.564392 
	C370.735138,368.564392 368.785950,368.564362 366.836731,368.564362 
	C286.216492,368.564392 205.596252,368.537689 124.976051,368.573242 
	C65.201866,368.599609 16.335249,407.965576 3.518162,466.360565 
	C2.771024,469.764526 2.322267,473.234039 1.367328,476.836517 
	C1.000000,318.406250 1.000000,159.812500 1.000000,1.000000 
	C159.354156,1.000000 317.708435,1.000000 476.531342,0.999999 
z"/>
<path fill="#FFFFFF" opacity="1.000000" stroke="none" 
	d="
M981.000000,478.531342 
	C979.548340,472.285187 978.421021,465.480713 976.593811,458.869690 
	C961.625488,404.711456 913.860352,368.607483 857.171509,368.575439 
	C778.019287,368.530731 698.867065,368.564178 619.714844,368.564178 
	C617.894531,368.564178 616.074219,368.564148 613.501038,368.564148 
	C613.501038,366.389313 613.501038,364.466705 613.500977,362.544098 
	C613.500610,283.725159 613.768005,204.904968 613.404358,126.087692 
	C613.168823,75.046005 589.907898,37.413605 544.801941,13.538474 
	C531.905212,6.712091 517.933350,2.988744 503.175110,1.375498 
	C662.260376,1.000000 821.520813,1.000000 981.000000,1.000000 
	C981.000000,160.020828 981.000000,319.041748 981.000000,478.531342 
z"/>
</svg>